<svg xmlns="http://www.w3.org/2000/svg" viewBox="0 0 242.04 168.71"><defs><style>.cls-1{font-size:146px;font-family:Quango, Quango;font-weight:700;}.cls-1,.cls-2,.cls-3,.cls-5{fill:#2e3667;}.cls-1,.cls-3,.cls-4{stroke:#000;}.cls-1,.cls-3,.cls-4,.cls-5{stroke-miterlimit:10;}.cls-4{fill:#fff;}.cls-5{stroke:#2e3667;}</style></defs><title>Asset 7</title><g id="Layer_2" data-name="Layer 2"><g id="Layer_1-2" data-name="Layer 1"><text class="cls-1" transform="translate(59.67 119.78)">lor</text><text></text><text></text><path class="cls-2" d="M14.46,82.14c-1.6-.07-3.21-.13-4.81-.18v4H.14c0,1.69,0,4.6,0,6.57H9.65v3.13c4.45-.09,12.87-.51,17.09,2.06v-16C23,83,18,82.3,14.46,82.14Z"/><path class="cls-3" d="M48.74,33.51c-9.64,0-19.28,4.38-20.88,13a80.79,80.79,0,0,0-1,13.72v25.7H42.75v6.57H26.84v27.3H9.75V60.22a68.2,68.2,0,0,1,1.9-16.79c2.78-10.8,19.86-16.2,37.09-16.2Z"/><line class="cls-4" x1="10.24" y1="85.92" x2="0.04" y2="85.92"/><line class="cls-4" x1="10.24" y1="92.5" x2="0.04" y2="92.5"/><line class="cls-4" x1="0.5" y1="85.42" x2="0.5" y2="93"/><path class="cls-2" d="M9.74,89.57a1.5,1.5,0,0,0,0-3,1.5,1.5,0,0,0,0,3Z"/><path class="cls-2" d="M10.1,90.16a1.5,1.5,0,0,0,0-3,1.5,1.5,0,0,0,0,3Z"/><path class="cls-2" d="M9.93,91a1.5,1.5,0,0,0,0-3,1.5,1.5,0,0,0,0,3Z"/><path class="cls-2" d="M9.93,91.45a1.5,1.5,0,0,0,0-3,1.5,1.5,0,0,0,0,3Z"/><path class="cls-2" d="M9.93,91.69a1.5,1.5,0,0,0,0-3,1.5,1.5,0,0,0,0,3Z"/><path class="cls-2" d="M9.88,91.85a1.5,1.5,0,0,0,0-3,1.5,1.5,0,0,0,0,3Z"/><line class="cls-5" x1="8.54" y1="86.93" x2="11.54" y2="86.93"/><line class="cls-5" x1="8.54" y1="91.5" x2="11.54" y2="91.5"/></g></g></svg>